<?xml version="1.0" standalone="no"?>
<!DOCTYPE svg PUBLIC "-//W3C//DTD SVG 20010904//EN"
 "http://www.w3.org/TR/2001/REC-SVG-20010904/DTD/svg10.dtd">
<svg version="1.0" xmlns="http://www.w3.org/2000/svg"
 width="2720.000000pt" height="2720.000000pt" viewBox="0 0 2720.000000 2720.000000"
 preserveAspectRatio="xMidYMid meet">
<metadata>
Created by potrace 1.14, written by Peter Selinger 2001-2017
</metadata>
<g transform="translate(0.000000,2720.000000) scale(0.100000,-0.100000)"
fill="#000000" stroke="none">
<path d="M13817 20534 c-1 -1 -15 -4 -32 -7 -67 -11 -115 -29 -172 -66 -33
-21 -63 -44 -67 -49 -4 -7 -24 -4 -56 8 -28 10 -53 19 -55 19 -3 1 -6 1 -7 2
-8 2 -42 11 -113 28 -78 19 -110 25 -225 38 -76 9 -361 9 -440 -1 -102 -12
-174 -22 -220 -31 -14 -3 -36 -7 -50 -10 -14 -2 -61 -14 -105 -25 -44 -11 -87
-22 -95 -25 -8 -2 -46 -14 -85 -26 -38 -13 -73 -23 -77 -23 -3 -1 -10 -4 -14
-8 -4 -5 -13 -8 -19 -8 -7 0 -30 -8 -51 -17 -22 -9 -45 -18 -53 -19 -7 -1 -18
-7 -24 -13 -6 -6 -17 -11 -25 -11 -7 0 -73 -29 -146 -64 -311 -152 -513 -334
-633 -570 l-35 -69 -116 6 c-194 10 -347 44 -512 114 -55 23 -211 103 -220
113 -3 3 -36 28 -74 55 -39 27 -109 88 -157 136 -48 48 -97 90 -108 94 -14 4
-32 0 -48 -10 -24 -16 -25 -20 -18 -78 3 -34 10 -80 15 -102 5 -22 11 -56 14
-75 3 -19 11 -53 16 -75 6 -22 12 -48 15 -58 11 -45 67 -200 96 -262 56 -124
152 -275 212 -336 45 -45 53 -57 35 -53 -63 13 -216 28 -288 28 -468 -1 -866
-233 -1162 -679 -63 -95 -169 -292 -215 -400 -27 -63 -94 -244 -98 -265 -2 -8
-10 -35 -18 -60 -13 -38 -33 -121 -43 -180 -2 -8 -5 -28 -8 -45 -6 -31 -12
-71 -23 -141 -3 -21 -6 -174 -7 -339 l-2 -300 -27 -47 c-15 -25 -34 -52 -42
-58 -8 -7 -15 -17 -15 -22 0 -17 -103 -147 -224 -283 -90 -102 -178 -197 -192
-210 -13 -11 -162 -180 -212 -241 -59 -71 -152 -214 -196 -302 -41 -83 -69
-162 -97 -282 -14 -60 -19 -304 -7 -385 15 -102 27 -165 33 -175 2 -4 7 -22
10 -41 3 -19 11 -52 16 -74 6 -22 12 -47 14 -55 2 -8 8 -35 14 -60 7 -25 14
-56 17 -69 3 -14 7 -28 9 -31 2 -4 7 -22 10 -41 3 -19 11 -54 16 -79 28 -123
34 -176 33 -335 0 -147 -6 -213 -24 -261 -5 -13 -7 -24 -4 -24 4 0 2 -6 -3
-12 -6 -7 -16 -35 -23 -63 -19 -75 -48 -135 -88 -185 -20 -25 -40 -46 -44 -48
-5 -2 -8 -10 -8 -17 0 -7 -3 -15 -7 -17 -5 -2 -19 -15 -32 -30 -21 -24 -21
-26 -4 -22 16 5 241 168 314 229 31 25 113 132 143 186 l23 40 38 -68 c72
-129 85 -154 85 -167 0 -38 112 -272 183 -382 91 -140 240 -308 354 -399 26
-21 53 -43 58 -49 6 -6 18 -15 27 -21 9 -5 53 -35 99 -66 46 -30 91 -58 99
-61 19 -7 352 -206 364 -218 5 -5 4 -25 -2 -47 -55 -194 -62 -231 -79 -383
-13 -119 -7 -383 12 -477 2 -11 6 -36 9 -54 3 -19 8 -44 11 -56 3 -13 7 -32
10 -44 2 -11 7 -29 10 -39 3 -10 7 -27 9 -37 12 -60 77 -226 131 -335 93 -186
181 -311 323 -459 41 -43 82 -93 90 -111 123 -274 205 -385 478 -648 208 -200
452 -385 704 -532 107 -63 307 -164 390 -198 30 -12 70 -29 89 -37 18 -8 39
-16 45 -18 6 -1 25 -7 41 -14 72 -29 253 -86 302 -96 10 -1 61 -15 114 -29 52
-14 109 -28 125 -30 27 -5 42 -9 97 -21 12 -3 38 -8 57 -11 19 -3 41 -7 48 -9
15 -5 127 -24 187 -31 22 -3 41 -7 43 -9 3 -3 -82 -85 -182 -176 -27 -24 -78
-72 -114 -106 -36 -35 -66 -63 -68 -63 -2 0 -205 -192 -259 -245 -16 -16 -32
-37 -34 -45 -50 -198 -46 -191 -118 -258 -311 -290 -600 -604 -798 -867 -116
-154 -300 -441 -339 -528 -21 -48 -36 -97 -36 -121 0 -12 -18 -39 -41 -61 -62
-61 -74 -91 -59 -145 8 -28 1 -45 -61 -158 -38 -70 -74 -134 -79 -142 -16 -24
-174 -322 -189 -355 -5 -11 -23 -49 -41 -85 -43 -90 -132 -283 -134 -295 -1
-5 -10 -28 -20 -50 -10 -22 -22 -49 -27 -60 -33 -77 -129 -341 -135 -374 -3
-13 -10 -34 -16 -45 -6 -12 -11 -22 -10 -23 1 -2 2 -4 1 -5 0 -2 -2 -10 -4
-18 -2 -8 -11 -40 -20 -70 -16 -55 -21 -73 -30 -110 -3 -11 -8 -30 -11 -43 -3
-12 -7 -32 -9 -44 -2 -11 -6 -30 -9 -41 -7 -22 -10 -35 -26 -122 -6 -30 -12
-64 -14 -76 -10 -50 -22 -155 -30 -261 -4 -40 -11 -85 -17 -100 -19 -49 -24
-90 -20 -175 l1 -28 5000 0 c2750 0 5001 3 5001 8 1 4 3 16 5 27 1 11 5 30 7
41 47 202 59 769 22 1034 -3 19 -7 54 -10 77 -5 45 -14 103 -21 137 -2 11 -7
41 -10 66 -3 25 -8 48 -10 51 -2 3 -6 19 -8 35 -8 39 -14 69 -35 154 -7 25
-13 52 -15 61 -27 111 -106 343 -168 494 -56 137 -145 324 -166 348 -8 9 -12
17 -9 17 4 0 -7 23 -23 50 -17 28 -30 52 -30 54 0 16 -243 409 -300 486 -229
307 -211 284 -335 429 -103 120 -107 125 -260 281 -140 144 -202 202 -341 319
-60 51 -122 105 -139 119 -93 79 -339 254 -540 384 -139 90 -611 346 -640 347
-11 1 -71 34 -88 49 -10 9 -25 32 -34 51 -30 66 -54 90 -121 126 -94 49 -209
138 -321 247 -109 106 -161 168 -161 192 0 9 -6 16 -12 17 -130 9 -127 16 46
103 84 43 211 112 280 154 70 42 135 82 145 87 28 16 166 109 171 116 3 3 15
11 26 17 62 33 374 279 539 426 391 348 634 636 760 899 l51 108 157 1 c85 0
175 4 199 8 24 5 61 11 83 14 22 4 49 9 60 13 11 4 25 7 30 8 13 1 96 24 115
32 8 4 17 7 20 8 131 33 443 206 550 305 222 203 425 453 540 664 16 31 44 81
60 112 77 141 171 413 194 559 3 17 8 50 13 75 9 56 10 359 1 420 -25 166 -88
345 -168 476 -35 58 -37 66 -29 104 19 86 23 119 23 225 1 104 -5 170 -19 206
-4 11 10 22 61 42 188 78 393 274 506 487 62 117 115 279 136 415 4 28 7 133
7 235 0 189 -5 255 -30 370 -3 14 -8 36 -11 50 -3 14 -7 36 -10 49 -17 81 -91
253 -146 338 -57 90 -179 204 -240 226 -24 9 -23 18 12 88 56 111 103 271 118
399 12 111 5 312 -13 400 -3 14 -10 45 -15 70 -12 63 -55 190 -92 269 -27 60
-105 199 -118 211 -3 3 -24 30 -47 60 -45 60 -174 190 -238 241 -60 47 -163
113 -230 147 -76 38 -185 82 -185 75 0 -3 -7 0 -15 7 -8 7 -15 10 -15 6 0 -3
-15 0 -34 8 -19 8 -55 17 -82 21 -26 3 -51 8 -54 10 -4 2 -45 7 -91 10 -126 9
-126 9 -70 58 27 23 55 53 64 67 8 14 25 35 37 48 11 12 17 22 13 22 -4 0 -3
4 3 8 6 4 26 34 43 66 17 33 36 65 42 73 6 7 8 13 4 13 -4 0 -3 6 2 13 10 12
44 113 58 172 4 17 9 39 12 50 10 38 12 270 3 293 -13 32 -52 47 -92 36 -26
-7 -39 -21 -58 -59 -14 -27 -40 -64 -59 -83 -32 -33 -112 -76 -163 -89 -47
-11 -172 -10 -222 3 -50 13 -207 87 -230 108 -6 6 -29 24 -51 41 -39 29 -172
147 -290 259 -116 110 -351 276 -390 276 -8 0 -16 4 -19 9 -7 11 -127 48 -191
59 -27 4 -113 6 -190 4 -326 -9 -364 -7 -429 17 -14 6 -26 9 -26 6 0 -2 -26 9
-57 25 -32 17 -61 30 -64 30 -13 0 -159 100 -278 189 -63 47 -133 100 -156
117 -49 37 -248 155 -267 158 -7 1 -28 10 -45 19 -18 10 -33 15 -33 13 0 -3
-24 6 -52 18 -44 20 -71 28 -128 41 -3 1 -18 4 -35 8 -54 13 -79 18 -130 25
-64 9 -306 9 -366 0 -26 -4 -50 -4 -54 0 -7 7 -12 8 -42 11 -14 1 -15 3 -4 10
16 10 1 17 -63 27 -21 3 -48 7 -59 10 -12 2 -39 6 -62 9 -22 4 -51 8 -65 10
-14 2 -45 7 -70 10 -25 3 -70 10 -100 15 -30 5 -73 12 -95 15 -22 3 -56 9 -75
12 -34 5 -248 11 -253 7z m-4610 -8435 c39 -27 43 -33 28 -41 -9 -6 -24 -11
-33 -13 -10 -2 -18 -4 -19 -4 -2 -1 -6 -1 -10 -2 -5 -1 -16 -5 -25 -10 -12 -6
-18 -6 -18 1 0 15 24 100 28 100 2 0 24 -14 49 -31z m189 -170 c5 -25 20 -95
30 -139 19 -86 36 -169 39 -190 3 -14 7 -36 10 -50 6 -27 12 -61 20 -112 3
-18 8 -40 10 -48 11 -39 19 -111 19 -170 0 -58 -3 -83 -18 -155 -13 -63 -38
-206 -43 -240 -9 -65 -10 -287 -2 -330 4 -22 6 -41 4 -43 -4 -4 -95 114 -95
123 0 4 -11 20 -24 35 -30 36 -115 202 -155 302 -30 77 -80 240 -87 288 -2 14
-6 36 -8 49 -21 99 -30 439 -14 541 4 25 7 53 7 63 1 9 7 17 15 17 14 0 189
53 246 75 40 15 39 15 46 -16z"/>
</g>
</svg>
